<?xml version="1.0" encoding="UTF-8" standalone="no"?>
<!-- Created with Inkscape (http://www.inkscape.org/) -->

<svg
   xmlns:dc="http://purl.org/dc/elements/1.1/"
   xmlns:cc="http://creativecommons.org/ns#"
   xmlns:rdf="http://www.w3.org/1999/02/22-rdf-syntax-ns#"
   xmlns:svg="http://www.w3.org/2000/svg"
   xmlns="http://www.w3.org/2000/svg"
   xmlns:sodipodi="http://sodipodi.sourceforge.net/DTD/sodipodi-0.dtd"
   xmlns:inkscape="http://www.inkscape.org/namespaces/inkscape"
   width="720"
   height="720"
   viewBox="0 0 719.99999 720.00001"
   id="svg2"
   version="1.1"
   inkscape:version="0.91 r13725"
   sodipodi:docname="comicorama-milan.svg"
   inkscape:export-filename="comicorama-milan.png"
   inkscape:export-xdpi="200"
   inkscape:export-ydpi="200">
  <defs
     id="defs4" />
  <sodipodi:namedview
     id="base"
     pagecolor="#ffffff"
     bordercolor="#666666"
     borderopacity="1.0"
     inkscape:pageopacity="0.0"
     inkscape:pageshadow="2"
     inkscape:zoom="1.1472222"
     inkscape:cx="361.74334"
     inkscape:cy="360"
     inkscape:document-units="px"
     inkscape:current-layer="layer1"
     showgrid="false"
     inkscape:window-width="1920"
     inkscape:window-height="1016"
     inkscape:window-x="0"
     inkscape:window-y="27"
     inkscape:window-maximized="1"
     showguides="true"
     inkscape:guide-bbox="true"
     units="px">
    <inkscape:grid
       type="xygrid"
       id="grid4490" />
  </sodipodi:namedview>
  <metadata
     id="metadata7">
    <rdf:RDF>
      <cc:Work
         rdf:about="">
        <dc:format>image/svg+xml</dc:format>
        <dc:type
           rdf:resource="http://purl.org/dc/dcmitype/StillImage" />
        <dc:title />
      </cc:Work>
    </rdf:RDF>
  </metadata>
  <g
     inkscape:label="Layer 1"
     inkscape:groupmode="layer"
     id="layer1"
     transform="translate(0,-332.36216)">
    <g
       style="stroke-width:3;stroke-miterlimit:4;stroke-dasharray:none"
       id="g4519" />
    <g
       id="g4507"
       transform="matrix(-1,0,0,1,683.53909,1.0575794)" />
    <g
       transform="translate(-9.8276902,-9.7162506)"
       id="g5608" />
    <g
       id="milan"
       transform="matrix(1.033015,0,0,1.0330016,-33.389808,0.36263971)"
       inkscape:label="#g4568">
      <g
         transform="matrix(1.078583,0,0,1.0785495,-29.926652,-54.787565)"
         id="g4391">
        <g
           id="g4344">
          <path
             inkscape:connector-curvature="0"
             id="path5011"
             d="m 360.00001,539.16602 -8.28087,13.29298 4.79418,25.49637 16.34383,16.34383 24.6247,5.0121 19.83051,-8.49879 14.38256,-21.13801 -8.49879,-9.37046 z"
             style="fill:#ffffff;fill-rule:evenodd;stroke:#000000;stroke-width:0.89753079px;stroke-linecap:butt;stroke-linejoin:miter;stroke-opacity:1" />
          <g
             id="g4340">
            <path
               id="path4860"
               style="fill:#ff3737;fill-opacity:1;fill-rule:evenodd;stroke:#000000;stroke-width:7.14524269;stroke-linecap:butt;stroke-linejoin:miter;stroke-miterlimit:4;stroke-dasharray:none;stroke-opacity:1"
               d="m 273.39189,654.95963 -10.58317,13.21366 c 1.78998,10.80746 2.13435,20.87999 2.35729,30.80508 -5.18113,17.21393 -7.55846,35.80012 -13.68906,50.69613 l -1.21035,2.65989 c 37.88267,14.10775 57.26018,32.5392 117.6433,33.7059 17.30295,0.33432 45.19857,-5.78088 73.56315,-5.65007 l 0.0328,-3.47303 c 1.82564,-21.13462 1.22914,-49.38844 6.74665,-70.17136 l 57.13597,-34.48686 c 0.43632,-25.34543 -1.71744,-48.4116 -9.55384,-64.42002 -7.62739,-10.00924 -15.99084,-18.15748 -24.66377,-26.72056 l -42.9627,-7.52137 c -7.48889,18.90161 -28.78554,29.84199 -48.30806,22.73567 -22.06665,-8.03241 -37.61429,-35.83677 -20.93909,-59.79717 l 1.78319,-8.26123 -6.84591,0.21377 c -12.23226,0.32573 -34.3079,6.94738 -45.18531,10.48367 -20.42467,6.64015 -29.70026,6.52928 -44.36925,22.17926 -5.27939,5.63245 -28.04397,40.37643 -38.27196,59.49999 17.74078,8.80137 37.52412,24.06306 47.32012,34.30865 z"
               inkscape:connector-curvature="0"
               sodipodi:nodetypes="cccccscccccccscccsscc" />
            <path
               style="fill:none;fill-rule:evenodd;stroke:#000000;stroke-width:7.14524269;stroke-linecap:butt;stroke-linejoin:miter;stroke-miterlimit:4;stroke-dasharray:none;stroke-opacity:1"
               d="m 442.51048,680.07866 14.06533,-3.66289"
               id="path4317"
               inkscape:connector-curvature="0" />
          </g>
        </g>
        <g
           id="g4902">
          <path
             sodipodi:nodetypes="ccccsccc"
             inkscape:connector-curvature="0"
             d="m 277.30025,898.40333 c -43.02507,-1.13623 -61.32951,-2.20723 -78.91866,-3.93754 -5.97712,-0.65175 -12.77918,-1.27037 -19.16054,-2.6465 -2.96249,-0.16454 -8.5645,0.37197 -11.9346,-1.03844 -2.52485,-2.82085 -3.61105,-8.04907 -1.56006,-12.64388 2.7949,-6.26137 12.14778,-9.17719 25.28663,-8.2814 l 82.34748,9.28542 z"
             style="fill:#ffffff;fill-rule:evenodd;stroke:#000000;stroke-width:4.7640934;stroke-linecap:butt;stroke-linejoin:miter;stroke-miterlimit:4;stroke-dasharray:none;stroke-opacity:1"
             id="path4483" />
          <path
             sodipodi:nodetypes="cc"
             inkscape:connector-curvature="0"
             id="path4838"
             d="m 178.40007,890.87472 c 0.24455,-4.40822 0.99426,-8.34096 1.29655,-10.62775"
             style="fill:none;fill-rule:evenodd;stroke:#000000;stroke-width:4.7640934;stroke-linecap:butt;stroke-linejoin:miter;stroke-miterlimit:4;stroke-dasharray:none;stroke-opacity:1" />
        </g>
        <g
           id="g4898">
          <path
             sodipodi:nodetypes="cscsssccsccsscc"
             inkscape:connector-curvature="0"
             d="m 563.09928,881.95053 c 6.73435,-9.67881 8.89743,-17.69972 11.11012,-28.09382 2.21371,-10.39888 2.36113,-25.20606 -0.71989,-35.44057 -5.17771,-18.70863 -25.12583,-36.91628 -39.5909,-35.8054 -36.46685,2.80057 -50.10347,-0.22776 -84.11652,-1.99193 -31.12756,-1.61451 -62.88049,5.78843 -81.87219,5.42148 -75.20438,-1.45307 -86.80271,-29.68645 -149.76335,-42.99358 l -53.83662,-2.74264 c -7.68216,3.33066 -14.05495,7.25886 -19.77761,13.78912 -6.33569,7.2298 -9.74939,16.09601 -12.03837,25.0002 l -0.61636,8.37755 c -1.51692,15.66138 3.62908,35.84176 15.71635,47.03404 16.23395,15.03193 29.19534,28.17912 49.91,37.24362 20.49456,8.96818 46.2691,15.32842 70.19831,18.84387 z"
             style="fill:#ffffff;fill-rule:evenodd;stroke:#000000;stroke-width:7.14524269;stroke-linecap:butt;stroke-linejoin:miter;stroke-miterlimit:4;stroke-dasharray:none;stroke-opacity:1"
             id="path4502" />
          <path
             inkscape:export-ydpi="90"
             inkscape:export-xdpi="90"
             sodipodi:nodetypes="cscc"
             inkscape:connector-curvature="0"
             id="path4500"
             d="m 364.57628,865.82463 c 13.31783,-8.77299 24.32846,-16.83648 39.36928,-27.25854 21.14065,-14.64874 43.15813,-16.36868 59.6887,-25.66229 4.00176,-4.78759 8.88882,-8.9303 16.22047,-12.01864"
             style="fill:none;fill-rule:evenodd;stroke:#000000;stroke-width:7.14524269;stroke-linecap:butt;stroke-linejoin:miter;stroke-miterlimit:4;stroke-dasharray:none;stroke-opacity:1" />
        </g>
      </g>
      <path
         inkscape:export-ydpi="90"
         inkscape:export-xdpi="90"
         inkscape:connector-curvature="0"
         id="path4485"
         d="m 119.79529,836.03575 c 0.78624,0.139 0.54068,1.01073 0.94017,1.41021 0.24776,0.24774 0.69242,0.22232 0.94017,0.47006 0.0554,0.0554 -0.0248,0.16072 0,0.23504 0.1108,0.33239 0.31339,0.62676 0.47009,0.94014 0.0783,0.15669 0.19255,0.30012 0.23505,0.47008 0.038,0.15201 -0.0583,0.32457 0,0.47006 0.20981,0.52455 0.68749,0.9049 0.94016,1.41021 0.1108,0.22159 0.1567,0.47007 0.23505,0.70511 0.15668,0.23503 0.34374,0.45245 0.47008,0.7051 0.38223,0.76444 0.0593,0.55908 0.47009,1.17517 0.0615,0.0922 0.2,0.12993 0.23503,0.23504 0.0495,0.14865 -0.038,0.31806 0,0.47007 0.0425,0.16995 0.1567,0.31338 0.23505,0.47007 0.0783,0.15669 0.12992,0.32992 0.23504,0.47008 1.01663,1.01658 0.0369,-0.0622 0.70512,0.94014 0.0615,0.0922 0.1855,0.13593 0.23505,0.23502 0.0918,0.18358 0.2647,0.96981 0.47008,1.17518 0.12388,0.12387 0.34621,0.11117 0.47009,0.23504 1.20115,1.20111 -0.98553,-0.32782 0.70512,0.94014 0.14015,0.10515 0.32994,0.12992 0.47009,0.23503 0.17728,0.13296 0.31339,0.31339 0.47008,0.47007 0.1567,0.15669 0.33713,0.2928 0.47009,0.47007 0.10516,0.14015 0.11116,0.3462 0.23504,0.47007 0.0151,0.0151 0.89639,0.44089 0.94017,0.47007 0.0922,0.0615 0.14285,0.17357 0.23505,0.23504 0.29153,0.19434 0.64862,0.27572 0.94017,0.47006 0.0922,0.0615 0.14284,0.17359 0.23503,0.23504 0.0438,0.0292 0.92511,0.45501 0.94017,0.47008 0.12388,0.12387 0.11117,0.34619 0.23504,0.47006 0.12388,0.12387 0.32432,0.13786 0.47009,0.23504 0.66554,0.44368 -0.44545,0.15087 0.94017,0.7051 1.35066,0.54025 -0.7385,-1.06085 1.17521,0.47007 0.17304,0.13843 0.29281,0.33712 0.47008,0.47007 0.14015,0.10516 0.34621,0.11117 0.47009,0.23504 0.12388,0.12387 0.0949,0.36496 0.23505,0.47007 0.1982,0.14865 0.48352,0.12424 0.70512,0.23503 0.0991,0.0495 0.14285,0.17358 0.23505,0.23504 0.14576,0.0972 0.3243,0.13786 0.47007,0.23503 0.34586,0.23056 0.59431,0.70958 0.94017,0.94014 0.14577,0.0972 0.34621,0.11116 0.47009,0.23504 0.12388,0.12387 0.11116,0.34619 0.23504,0.47006 0.0554,0.0554 0.15669,0 0.23504,0 0.1567,0.1567 0.37099,0.27187 0.47009,0.47008 0.0701,0.14015 -0.0869,0.33969 0,0.47006 0.0972,0.14577 0.32432,0.13786 0.47008,0.23504 0.0922,0.0615 0.1567,0.15669 0.23504,0.23504 0.23505,0.23504 0.47009,0.47006 0.70513,0.7051 0.1567,0.15669 0.31339,0.31338 0.47009,0.47008 0.0783,0.0783 0.17357,0.14284 0.23504,0.23502 0.85209,1.70414 -0.24776,-0.37161 0.47008,0.70511 0.0972,0.14576 0.11117,0.3462 0.23505,0.47007 0.12387,0.12388 0.3462,0.11116 0.47009,0.23504 0.12387,0.12387 0.13786,0.32431 0.23503,0.47007 0.12293,0.18437 0.31339,0.31337 0.47009,0.47007 0.1567,0.15669 0.31339,0.31338 0.47008,0.47007 0.0783,0.0783 0.13594,0.18548 0.23504,0.23503 0.22161,0.1108 0.48353,0.12424 0.70513,0.23503 0.0991,0.0495 0.13594,0.18549 0.23504,0.23504 0.0701,0.0351 0.16497,-0.035 0.23505,0 0.0991,0.0495 0.15669,0.15669 0.23504,0.23504 0.1567,0.15669 0.2928,0.33711 0.47008,0.47006 0.28031,0.21022 0.65987,0.25986 0.94017,0.47008 0.17729,0.13295 0.31339,0.31338 0.47009,0.47006 0.47008,0.47008 0.94017,0.94014 1.41026,1.41022 0.23503,0.23504 0.4392,0.50566 0.70512,0.7051 0.14015,0.10516 0.32432,0.13786 0.47008,0.23504 0.18438,0.12292 0.2857,0.34715 0.47009,0.47007 0.14577,0.0972 0.3462,0.11116 0.47008,0.23503 0.12388,0.12388 0.11117,0.3462 0.23504,0.47007 0.5937,0.59368 0.27095,0.0903 0.70514,0.23504 0.1662,0.0554 0.32431,0.13786 0.47008,0.23503 0.34585,0.23057 0.59431,0.70958 0.94016,0.94014 0.14577,0.0972 0.3134,0.15669 0.47009,0.23503 0.15669,0.1567 0.29281,0.33712 0.47008,0.47008 -0.0267,0.44526 0.54844,0.15669 0.70513,0.23504 0.19821,0.0991 0.2857,0.34715 0.47009,0.47006 0.29153,0.19436 0.64863,0.27572 0.94016,0.47008 0.0922,0.0615 0.12993,0.19999 0.23505,0.23502 0.14865,0.0496 0.32993,-0.0701 0.47008,0 0.47009,0.23504 0.35256,0.47008 0.70513,0.70512 0.36204,0.24134 0.57812,0.22871 0.94017,0.47006 0.18438,0.12292 0.2857,0.34715 0.47008,0.47007 0.43392,0.28927 0.97633,0.41583 1.41026,0.70511 0.0965,0.0644 0.64075,0.60855 0.70512,0.7051 0.0972,0.14576 0.13787,0.32431 0.23505,0.47007 0.12292,0.18438 0.34716,0.2857 0.47009,0.47007 0.0972,0.14576 0.13786,0.32431 0.23503,0.47007 0.0615,0.0922 0.17359,0.14285 0.23504,0.23504 0.0625,0.0936 0.44456,0.92312 0.47009,0.94014 0.13037,0.0869 0.35928,-0.1108 0.47008,0 0.11081,0.1108 -0.0869,0.33969 0,0.47006 0.017,0.0256 0.84654,0.40765 0.94017,0.47008 0.0922,0.0615 0.13595,0.18549 0.23505,0.23504 0.0701,0.035 0.16497,-0.0351 0.23504,0 0.0991,0.0495 0.14285,0.17357 0.23505,0.23502 0.14576,0.0972 0.3243,0.13786 0.47007,0.23504 0.0922,0.0615 0.14285,0.17358 0.23505,0.23504 -0.0268,0.44526 0.54843,0.15669 0.70512,0.23504 0.0991,0.0495 0.12993,0.19999 0.23505,0.23503 0.22297,0.0743 0.48215,-0.0743 0.70512,0 1.70251,0.56748 -0.37057,-0.0677 0.70513,0.47007 0.0701,0.0351 0.16071,-0.0248 0.23504,0 0.3324,0.1108 0.60777,0.35927 0.94017,0.47007 0.0743,0.0248 0.16497,-0.0351 0.23504,0 0.28205,0.14102 0.42308,0.56408 0.70513,0.7051 0.14016,0.0701 0.32144,-0.0495 0.47009,0 0.21022,0.0701 0.2857,0.34716 0.47008,0.47007 -0.0268,0.44526 0.54843,0.15669 0.70513,0.23504 0.0991,0.0495 0.13593,0.18548 0.23504,0.23503 0.0701,0.0351 0.16071,-0.0248 0.23504,0 0.33241,0.1108 0.60025,0.3851 0.94017,0.47007 0.15201,0.038 0.31807,-0.038 0.47009,0 0.16996,0.0425 0.31339,0.15669 0.47008,0.23503 0.31339,0.1567 0.60777,0.35928 0.94017,0.47008 0.0743,0.0248 0.15669,0 0.23504,0 0.23504,0.15669 0.45246,0.34374 0.70513,0.47006 0.0701,0.0351 0.16496,-0.0351 0.23504,0 0.0991,0.0495 0.12993,0.20001 0.23504,0.23504 0.14865,0.0495 0.31808,-0.038 0.47009,0 0.68168,0.17041 0.27506,0.18338 0.70513,0.47008 1.08612,0.72405 -0.14596,-0.254 0.94016,0.47006 0.0922,0.0615 0.1567,0.15669 0.23505,0.23504 0.15669,0.0783 0.32432,0.13786 0.47008,0.23504 0.0922,0.0615 0.15669,0.15669 0.23504,0.23502 0.1567,0.15669 0.3134,0.31339 0.47009,0.47008 0.0783,0.0783 0.13594,0.18549 0.23504,0.23503 0.0701,0.0351 0.17964,-0.0554 0.23504,0 0.12388,0.12388 0.0893,0.3729 0.23505,0.47007 0.13037,0.0869 0.32142,-0.0495 0.47008,0 0.12721,0.0424 0.55071,0.60216 0.70513,0.70511 0.14576,0.0972 0.32432,0.13786 0.47008,0.23503 0.0922,0.0615 0.12993,0.2 0.23504,0.23504 0.14865,0.0495 0.31808,-0.038 0.47009,0 0.16995,0.0425 0.31338,0.15669 0.47008,0.23503 0.1567,0.0783 0.31339,0.1567 0.47009,0.23504 0.31338,0.15669 0.64863,0.27572 0.94017,0.47007 0.18438,0.12292 0.25985,0.4 0.47008,0.47007 0.14866,0.0495 0.31339,0 0.47009,0 0.39173,0 0.78347,0 1.17521,0 0.1567,0 0.31643,-0.0307 0.47008,0 0.24295,0.0485 0.46218,0.18645 0.70513,0.23504 0.23048,0.046 0.48214,-0.0743 0.70513,0 1.70251,0.56748 -0.37057,-0.0677 0.70512,0.47006 0.0701,0.035 0.16072,-0.0248 0.23505,0 0.16619,0.0554 0.30388,0.17963 0.47007,0.23504 0.0743,0.0248 0.16072,-0.0248 0.23505,0 0.1662,0.0554 0.30013,0.19254 0.47009,0.23504 0.15201,0.038 0.32143,-0.0495 0.47008,0 0.21022,0.0701 0.25986,0.39999 0.47009,0.47006 0.14865,0.0495 0.32143,-0.0495 0.47008,0 0.21023,0.0701 0.25986,0.4 0.47009,0.47008 0.14865,0.0495 0.32142,-0.0495 0.47007,0 0.10517,0.035 0.14286,0.17357 0.23505,0.23502 0.14577,0.0972 0.32432,0.13786 0.47009,0.23504 0.0922,0.0615 0.13593,0.18549 0.23504,0.23504 0.0701,0.035 0.15669,0 0.23504,0 0.15669,0 0.32143,-0.0495 0.47009,0 0.10516,0.035 0.14284,0.17357 0.23504,0.23504 0.14576,0.0972 0.31338,0.15669 0.47008,0.23503 0.1567,0.0783 0.30389,0.17964 0.47009,0.23503 0.0743,0.0248 0.16985,-0.0435 0.23503,0 0.18439,0.12292 0.28571,0.34715 0.47009,0.47007 0.0651,0.0435 0.16072,-0.0248 0.23505,0 0.1662,0.0554 0.30388,0.17964 0.47008,0.23504 0.21154,0.0705 0.49359,-0.0705 0.70513,0 0.10516,0.0351 0.13594,0.18548 0.23504,0.23503 0.0701,0.0351 0.16497,-0.035 0.23504,0 0.19821,0.0991 0.25985,0.4 0.47009,0.47007 0.14865,0.0495 0.32143,-0.0495 0.47008,0 0.10516,0.0351 0.1567,0.1567 0.23504,0.23504 0.1567,0.0783 0.30388,0.17963 0.47008,0.23503 0.0743,0.0248 0.15904,-0.019 0.23505,0 0.24036,0.0601 0.46218,0.18645 0.70513,0.23504 0.15365,0.0307 0.31338,0 0.47008,0 0.47009,0 0.94017,0 1.41026,0 0.54843,0 1.09686,0 1.64529,0 0.1567,0 0.31339,0 0.47009,0 0.15669,0 0.31806,0.038 0.47008,0 0.16996,-0.0425 0.30013,-0.19255 0.47009,-0.23504 0.15202,-0.038 0.31338,0 0.47008,0 0.0783,0 0.16497,0.035 0.23504,0 1.0757,-0.53783 -0.99738,0.0974 0.70513,-0.47007 0.14866,-0.0495 0.32143,0.0495 0.47009,0 0.1662,-0.0554 0.30012,-0.19254 0.47008,-0.23503 0.15201,-0.038 0.32143,0.0495 0.47008,0 0.10517,-0.0351 0.13594,-0.18549 0.23505,-0.23504 0.0749,-0.0374 0.96515,0 1.17521,0 0.62678,0 1.25355,0 1.88034,0 0.23503,0 0.4771,-0.057 0.70512,0 0.16997,0.0425 0.30388,0.17964 0.47008,0.23504 0.0743,0.0248 0.16072,-0.0248 0.23505,0 0.1662,0.0554 0.30389,0.17964 0.47009,0.23503 0.0743,0.0248 0.16071,-0.0248 0.23504,0 0.15669,0.0783 0.31338,0.1567 0.47008,0.23504 0.0783,0 0.16072,-0.0248 0.23505,0 0.33239,0.11079 0.60025,0.38509 0.94016,0.47007 0.15202,0.038 0.3134,0 0.47008,0 0.1567,0.0783 0.30389,0.17964 0.47009,0.23503 0.0743,0.0248 0.16497,-0.035 0.23505,0 0.0991,0.0495 0.13593,0.18549 0.23504,0.23504 0.0701,0.035 0.15669,0 0.23504,0 0.15669,0 0.32143,-0.0495 0.47009,0 0.10516,0.035 0.12992,0.2 0.23504,0.23503 0.14865,0.0495 0.32143,-0.0495 0.47008,0 0.10516,0.0351 0.13594,0.18549 0.23504,0.23503 0.0701,0.0351 0.16497,-0.035 0.23505,0 0.0991,0.0495 0.13593,0.18549 0.23503,0.23504 0.57891,0.28944 -0.21218,-0.68224 0.70514,0.23504 0.12387,0.12387 0.0893,0.3729 0.23504,0.47006 0.13037,0.0869 0.32143,-0.0495 0.47008,0 0.10516,0.0351 0.13595,0.18549 0.23505,0.23504 0.0701,0.0351 0.16496,-0.035 0.23504,0 0.0991,0.0495 0.14285,0.17358 0.23503,0.23504 0.14577,0.0972 0.32432,0.13786 0.47009,0.23504 0.18439,0.12291 0.28571,0.34715 0.47008,0.47006 0.14577,0.0972 0.31987,0.1449 0.47009,0.23504 0.24223,0.14533 0.45247,0.34374 0.70513,0.47006 0.0701,0.0351 0.16072,-0.0248 0.23504,0 0.1567,0.0783 0.31339,0.15669 0.47009,0.23504 0.0783,0 0.16071,-0.0248 0.23503,0 0.33241,0.1108 0.60026,0.3851 0.94017,0.47008 0.15203,0.038 0.3134,0 0.47009,0 0.62754,0 0.31263,0 0.94017,0 0.1567,0 0.31339,0 0.47009,0 0.0783,0 0.15903,-0.019 0.23503,0 0.24037,0.0601 0.46075,0.1943 0.70514,0.23503 0.30912,0.0516 0.62677,0 0.94017,0 0.86182,0 1.72364,0 2.58546,0 0.31339,0 0.62678,0 0.94017,0 0.15669,0 0.31339,0 0.47009,0 0.0783,0 0.1607,-0.0248 0.23504,0 0.1662,0.0554 0.30388,0.17964 0.47008,0.23503 0.0743,0.0248 0.1567,0 0.23504,0 0.1567,0 0.3134,0 0.47008,0 0.54844,0 1.09687,0 1.64531,0 0.0559,0 0.88749,-0.0263 0.94016,0 0.0991,0.0495 0.12993,0.20001 0.23505,0.23504 0.14865,0.0495 0.31806,-0.038 0.47008,0 0.16996,0.0425 0.30012,0.19254 0.47009,0.23503 0.15201,0.038 0.31806,-0.038 0.47008,0 0.16996,0.0425 0.30012,0.19255 0.47009,0.23504 0.15201,0.038 0.31338,0 0.47008,0 0.15669,0.0783 0.30389,0.17963 0.47008,0.23503 0.197,0.0657 0.7844,-0.0779 0.94017,0 0.0991,0.0495 0.12993,0.2 0.23505,0.23504 0.12957,0.0431 1.21078,0 1.41025,0 0.0783,0 0.16496,-0.0351 0.23504,0 0.0991,0.0495 0.12993,0.19999 0.23504,0.23503 0.14866,0.0495 0.32143,-0.0495 0.47008,0 0.10517,0.0351 0.13595,0.18549 0.23505,0.23504 0.14015,0.0701 0.32143,-0.0495 0.47009,0 0.1662,0.0554 0.30388,0.17963 0.47008,0.23503 0.0743,0.0248 0.15669,0 0.23504,0 0.1567,0 0.32143,-0.0495 0.47008,0 0.10516,0.0351 0.12994,0.2 0.23505,0.23504 0.14866,0.0495 0.31807,-0.038 0.47008,0 0.16996,0.0425 0.30388,0.17964 0.47008,0.23503 0.24977,0.0833 0.69042,-0.0833 0.94017,0 0.21024,0.0701 0.27188,0.37097 0.47009,0.47008 0.22181,0.58282 0.63371,0.13288 0.94017,0.23502 0.1662,0.0554 0.30388,0.17965 0.47009,0.23504 0.0743,0.0248 0.16071,-0.0248 0.23503,0 0.1662,0.0554 0.30389,0.17963 0.47009,0.23504 0.14865,0.0495 0.32993,-0.0701 0.47008,0 0.0991,0.0495 0.13595,0.18549 0.23505,0.23504 0.0701,0.035 0.15669,0 0.23504,0 0.1567,0 0.32143,-0.0495 0.47008,0 0.10516,0.035 0.12994,0.19999 0.23505,0.23502 0.14866,0.0495 0.31807,-0.038 0.47009,0 0.16995,0.0425 0.30388,0.17965 0.47007,0.23504 0.14867,0.0495 0.3134,0 0.47009,0 0.39173,0 0.78348,0 1.17522,0 0.15444,0 0.57251,-0.0442 0.70512,0 0.1662,0.0554 0.62678,0.15669 0.47008,0.23504 -0.2803,0.14015 -0.62678,0 -0.94017,0"
         style="fill:none;fill-rule:evenodd;stroke:#000000;stroke-width:0.96804649px;stroke-linecap:butt;stroke-linejoin:miter;stroke-opacity:1" />
      <g
         transform="matrix(1.078583,0,0,1.0785495,-29.926652,-54.787565)"
         id="g4889">
        <path
           id="path4852"
           style="fill:#ffffff;fill-rule:evenodd;stroke:#000000;stroke-width:7.14524269;stroke-linecap:butt;stroke-linejoin:miter;stroke-miterlimit:4;stroke-dasharray:none;stroke-opacity:1"
           d="m 406.80042,866.83651 c 25.33613,1.18611 49.06422,10.13825 75.57886,11.51439 28.98708,1.50446 79.74494,2.35381 79.74494,2.35381 l 62.86916,34.5164 6.47182,17.2582 -306.6027,0.11556 -194.96373,-149.19867 10.63229,-15.17797 92.14645,10.78637 c 0,0 26.96186,21.64419 58.48778,41.53015 20.60357,12.99635 44.21584,23.29965 59.85417,33.04993 11.4004,7.10799 24.1923,27.7364 24.1923,27.7364 0,0 13.12695,-15.34885 31.58866,-14.48457 z"
           inkscape:connector-curvature="0"
           sodipodi:nodetypes="sscccccccsscs" />
        <path
           style="fill:none;fill-rule:evenodd;stroke:#000000;stroke-width:7.14524269;stroke-linecap:butt;stroke-linejoin:miter;stroke-miterlimit:4;stroke-dasharray:none;stroke-opacity:1"
           d="M 328.29298,932.72535 375.82,880.83999"
           id="path4844"
           inkscape:connector-curvature="0"
           sodipodi:nodetypes="cc" />
        <path
           style="fill:#000000;fill-rule:evenodd;stroke:#000000;stroke-width:7.14524269;stroke-linecap:butt;stroke-linejoin:miter;stroke-miterlimit:4;stroke-dasharray:none;stroke-opacity:1"
           d="m 331.50489,931.51343 14.17573,-16.31612 6.20676,16.44167 z"
           id="path4846"
           inkscape:connector-curvature="0"
           sodipodi:nodetypes="cccc" />
        <path
           style="fill:none;fill-rule:evenodd;stroke:#000000;stroke-width:7.14524269;stroke-linecap:butt;stroke-linejoin:miter;stroke-miterlimit:4;stroke-dasharray:none;stroke-opacity:1"
           d="m 142.07197,768.83459 c 0,0 38.95849,28.83991 83.71662,56.87938 31.3621,19.64731 65.58285,34.70503 89.78992,52.2171 13.33364,9.64593 29.58549,33.28367 29.58549,33.28367"
           id="path4850"
           inkscape:connector-curvature="0"
           sodipodi:nodetypes="cssc" />
        <path
           style="fill:none;fill-rule:evenodd;stroke:#000000;stroke-width:7.14524269;stroke-linecap:butt;stroke-linejoin:miter;stroke-miterlimit:4;stroke-dasharray:none;stroke-opacity:1"
           d="m 347.93763,912.44747 c 0,0 21.24074,-13.90239 42.22096,-13.56002 34.9237,0.56992 70.41959,9.73669 108.8028,12.74869 62.31064,4.88963 126.03199,4.50951 126.03199,4.50951"
           id="path4854"
           inkscape:connector-curvature="0"
           sodipodi:nodetypes="cssc" />
      </g>
      <g
         transform="matrix(1.078583,0,0,1.0785495,-29.926652,-54.787565)"
         id="g4927">
        <path
           id="path4910"
           style="fill:#ffffff;fill-rule:evenodd;stroke:#000000;stroke-width:2.3820467;stroke-linecap:butt;stroke-linejoin:miter;stroke-miterlimit:4;stroke-dasharray:none;stroke-opacity:1"
           d="m 187.8826,771.53482 c 0.78302,5.4169 8.66476,9.33377 14.16113,5.91579 2.77685,-1.72682 4.22022,-5.36252 5.87167,-7.92127 3.98721,-2.18596 9.51126,-9.83745 9.94236,-15.19998 0.29636,-3.68656 -0.0744,-7.24107 -0.97977,-10.92981 4.83999,-11.14839 8.79506,-25.22373 8.79506,-25.22373 16.95552,-23.74832 30.65193,-36.70489 47.15989,-60.7024 -13.84691,-13.37183 -29.153,-26.63044 -48.82709,-36.16413 -12.37719,16.57097 -27.94745,37.47488 -41.49137,54.49073 -18.95012,19.268 -25.3054,31.83352 -22.55586,51.70579 0.86514,6.25279 5.11871,12.44364 7.92055,20.18208 -5.05415,5.77631 -9.81018,11.52427 -11.92236,16.6794 -0.25992,1.12758 -0.0281,2.13062 0.32965,3.19949 z"
           inkscape:connector-curvature="0"
           sodipodi:nodetypes="cscscccccscccc" />
        <path
           style="fill:none;fill-rule:evenodd;stroke:#000000;stroke-width:2.3820467;stroke-linecap:butt;stroke-linejoin:miter;stroke-miterlimit:4;stroke-dasharray:none;stroke-opacity:1"
           d="m 160.82325,770.26772 c 1.90229,-4.6202 3.77476,-7.13802 6.53753,-10.89588"
           id="path4453"
           inkscape:connector-curvature="0"
           sodipodi:nodetypes="cc"
           inkscape:export-xdpi="90"
           inkscape:export-ydpi="90" />
        <path
           style="fill:none;fill-rule:evenodd;stroke:#000000;stroke-width:2.3820467;stroke-linecap:butt;stroke-linejoin:miter;stroke-miterlimit:4;stroke-dasharray:none;stroke-opacity:1"
           d="m 181.2111,677.61268 c 6.57882,-3.09155 10.36618,-2.15657 17.25178,-0.22113"
           id="path4516"
           inkscape:connector-curvature="0"
           sodipodi:nodetypes="cc"
           inkscape:export-xdpi="90"
           inkscape:export-ydpi="90" />
        <path
           style="fill:none;fill-rule:evenodd;stroke:#000000;stroke-width:2.3820467;stroke-linecap:butt;stroke-linejoin:miter;stroke-miterlimit:4;stroke-dasharray:none;stroke-opacity:1"
           d="m 218.19295,693.63815 c 3.91602,5.75388 8.17155,13.56218 6.74252,27.02977"
           id="path4518"
           inkscape:connector-curvature="0"
           sodipodi:nodetypes="cc"
           inkscape:export-xdpi="90"
           inkscape:export-ydpi="90" />
        <path
           style="fill:none;fill-rule:evenodd;stroke:#000000;stroke-width:2.3820467;stroke-linecap:butt;stroke-linejoin:miter;stroke-miterlimit:4;stroke-dasharray:none;stroke-opacity:1"
           d="m 200.93475,716.75181 c 4.37069,4.37582 6.9089,8.78972 7.39638,14.48456"
           id="path4520"
           inkscape:connector-curvature="0"
           sodipodi:nodetypes="cc"
           inkscape:export-xdpi="90"
           inkscape:export-ydpi="90" />
        <path
           inkscape:export-ydpi="90"
           inkscape:export-xdpi="90"
           sodipodi:nodetypes="ccccc"
           inkscape:connector-curvature="0"
           id="path4907"
           d="m 197.65133,740.08613 c 0.0866,11.27052 -6.50448,19.08786 -9.28212,27.99801 -0.46985,1.08497 -0.6221,2.15903 -0.51929,3.18369 m 28.99326,-27.09898 c -1.63779,-5.43197 -5.10453,-10.31279 -10.54135,-14.29521"
           style="fill:none;fill-rule:evenodd;stroke:#000000;stroke-width:2.3820467;stroke-linecap:butt;stroke-linejoin:miter;stroke-miterlimit:4;stroke-dasharray:none;stroke-opacity:1" />
        <path
           style="fill:none;fill-rule:evenodd;stroke:#000000;stroke-width:2.3820467;stroke-linecap:butt;stroke-linejoin:miter;stroke-miterlimit:4;stroke-dasharray:none;stroke-opacity:1"
           d="m 178.58354,736.59944 c -3.20325,3.50309 -7.00681,7.35139 -10.62182,11.28102"
           id="path4451"
           inkscape:connector-curvature="0"
           sodipodi:nodetypes="cc"
           inkscape:export-xdpi="90"
           inkscape:export-ydpi="90" />
      </g>
      <g
         transform="matrix(1.078583,0,0,1.0785495,-29.926652,-54.787565)"
         id="g4370">
        <g
           id="g4350">
          <path
             sodipodi:nodetypes="csssccccc"
             inkscape:connector-curvature="0"
             id="path4591"
             d="m 356.51693,469.15083 c -0.88728,4.13669 -2.19792,7.92893 -2.11121,11.63024 0.0968,4.13112 0.01,9.84165 -0.65821,13.93831 -0.52667,3.22932 -3.24157,4.97367 -2.84987,9.21819 0.15255,1.65305 1.81795,3.8269 4.69487,4.19762 l 3.52935,-10.85185 5.92201,-31.02431 -6.0104,-0.0884 c 0,0 -1.41422,0.88388 -2.51654,2.9802 z"
             style="fill:#ffffff;fill-rule:evenodd;stroke:#000000;stroke-width:2.3820467;stroke-linecap:butt;stroke-linejoin:miter;stroke-miterlimit:4;stroke-dasharray:none;stroke-opacity:1" />
          <path
             sodipodi:nodetypes="ccssc"
             inkscape:connector-curvature="0"
             id="path4589"
             d="m 360.03378,466.19973 c -2.58869,-0.10024 -4.53363,2.87954 -3.01972,4.61176 1.04333,1.43052 0.98095,3.21386 0.82971,4.90963 -0.34409,3.85818 -0.98306,4.74774 -1.52359,7.63871 -0.37783,2.02078 -0.69955,5.63135 -0.61648,7.67415"
             style="fill:none;fill-rule:evenodd;stroke:#000000;stroke-width:2.3820467;stroke-linecap:butt;stroke-linejoin:miter;stroke-miterlimit:4;stroke-dasharray:none;stroke-opacity:1" />
        </g>
        <path
           style="fill:#000000;fill-rule:evenodd;stroke:#000000;stroke-width:0.89753079px;stroke-linecap:butt;stroke-linejoin:miter;stroke-opacity:1"
           d="m 358.25399,490.51194 c -1.70241,-6.76446 5.55582,-12.68701 2.2434,-19.00621 -0.57925,-11.76335 5.1305,-22.53091 7.05225,-33.9282 1.29563,-5.73968 5.96261,-9.6369 8.83181,-14.57983 5.0576,-3.18162 9.49768,-7.5579 15.63192,-9.03645 5.05115,-0.22928 8.42862,-6.55686 13.26221,-2.89289 2.93408,-0.90722 5.32006,-4.41908 8.39027,-2.06212 5.53837,-2.07076 10.71516,-0.77628 15.55053,1.77721 5.72336,1.00715 11.41773,2.75837 16.32372,5.81828 2.48563,2.92688 3.26289,5.02818 7.66203,5.64721 5.06938,3.47503 9.38931,9.25618 10.31591,15.19619 0.37301,6.68492 5.95069,4.7056 5.59102,18.12036 -1.20982,7.17127 1.56522,16.01152 -2.37902,22.80475 -4.28157,5.72942 -6.05534,12.71976 -7.69271,19.5335 -0.71675,2.10733 -1.55365,4.17238 -2.46549,6.2024 z"
           id="path4549"
           inkscape:connector-curvature="0"
           sodipodi:nodetypes="cccccccccccccccc" />
        <g
           id="g4354">
          <path
             sodipodi:nodetypes="ccccsssssssscc"
             inkscape:connector-curvature="0"
             d="m 439.44182,541.14617 9.38535,-13.31307 6.13993,-31.33805 c 5.75489,-18.15457 3.62588,-33.1813 -1.01999,-41.34091 -8.05506,-14.18551 -17.57092,-9.31464 -27.76229,-11.86416 -17.53549,-4.38676 -16.55673,-13.1333 -26.47026,-12.09327 -11.30594,1.18611 -21.98759,8.66847 -30.95488,29.18821 -2.79441,6.39442 -2.78651,12.33245 -5.22337,18.68973 -1.88372,4.91423 -3.26531,11.3467 -5.24707,17.47079 -5.47871,16.93044 -3.88682,27.4936 -0.24962,41.26385 2.54391,9.63109 4.69771,12.48133 9.55804,20.68872 9.0929,15.35471 19.5365,15.95356 26.64804,15.28069 8.16065,-0.77213 17.49007,-6.04352 26.54474,-10.13205 z"
             style="opacity:1;fill:#ffffff;fill-rule:evenodd;stroke:#000000;stroke-width:2.3820467;stroke-linecap:butt;stroke-linejoin:miter;stroke-miterlimit:4;stroke-dasharray:none;stroke-opacity:1"
             id="path4553" />
          <path
             sodipodi:nodetypes="ssss"
             inkscape:connector-curvature="0"
             id="path4565"
             d="m 365.07249,549.77063 c -0.78348,0.60244 0.12634,1.73531 0.89043,1.20205 0.41525,-0.28981 0.39751,-0.77935 0.2008,-0.99987 -0.22657,-0.254 -0.67772,-0.52011 -1.09123,-0.20218 z"
             style="fill:#000000;fill-rule:evenodd;stroke:#000000;stroke-width:0.85044044;stroke-linecap:butt;stroke-linejoin:miter;stroke-miterlimit:4;stroke-dasharray:none;stroke-opacity:1" />
          <path
             sodipodi:nodetypes="cccccccc"
             inkscape:connector-curvature="0"
             id="path4569"
             d="m 430.98148,499.11269 c 5.43659,-1.65042 8.29668,-0.26135 11.45454,1.17939 2.89551,1.94887 5.79524,6.90069 0.22608,5.43013 -3.37478,-1.81053 -6.21663,-2.14917 -10.17799,-1.83436 -3.70512,-0.74211 -7.31608,1.16698 -11.13367,1.0771 -1.73662,-0.36328 -1.92751,-1.20936 -3.10873,-1.55226 2.92631,-1.38689 4.05098,-2.1041 7.19251,-3.14432 z"
             style="opacity:1;fill:#000000;fill-rule:evenodd;stroke:#000000;stroke-width:0.89753079px;stroke-linecap:butt;stroke-linejoin:miter;stroke-opacity:1" />
          <path
             sodipodi:nodetypes="ccccccccccccc"
             inkscape:connector-curvature="0"
             id="path4571"
             d="m 421.09306,511.61287 c 0.63977,-0.19751 0.68337,0.61517 1.19352,0.73713 0.37826,0.18144 0.50764,0.19961 0.88297,0.39814 0.30811,0.12818 0.25451,0.25997 0.36809,0.33235 0.43276,0.16278 0.93653,0.0859 0.93508,0.51338 0.56016,0.0166 0.85478,0.42315 1.43524,0.28587 0.48625,0.33248 1.21326,0.30725 1.79812,0.34373 0.47617,0.0806 0.63708,0.0577 1.1197,0.0912 0.58107,-0.007 1.16345,0.16519 1.74319,0.15409 0.29793,-0.11132 0.69626,0.12119 0.40128,0.0607 0.28459,-0.28126 1.03186,0.10002 1.10889,-0.25356 -0.41541,0.032 1.1544,-0.24475 1.30378,-0.1366 0.25231,0.0786 2.31212,0.0287 2.31212,0.0287"
             style="fill:none;fill-rule:evenodd;stroke:#000000;stroke-width:2.3820467;stroke-linecap:butt;stroke-linejoin:miter;stroke-miterlimit:4;stroke-dasharray:none;stroke-opacity:1" />
          <path
             sodipodi:nodetypes="cccccccccccc"
             inkscape:connector-curvature="0"
             id="path4573"
             d="m 376.29039,498.40477 4.2375,2.92772 c 0.57169,0.40668 1.52955,0.98081 2.08024,1.23273 0.43548,0.2599 1.16363,-0.0742 1.5409,0.23114 0.67321,-0.0868 1.00517,0.51721 1.69501,0.38523 0.34712,0.45321 1.17623,0.06 1.58028,0.39031 0.53698,-0.0444 0.62808,0.0301 1.19336,-0.0821 0.22797,0.3224 1.2441,0.0436 1.30978,0.31549 -0.32077,0.14053 0.55652,0.11643 0.6934,0.30088 0.61451,0.008 1.23711,-0.01 1.84909,0 0.36772,0.41131 0.98293,0.24143 1.42705,0.46227 l 0.88432,0"
             style="fill:none;fill-rule:evenodd;stroke:#000000;stroke-width:2.3820467;stroke-linecap:butt;stroke-linejoin:miter;stroke-miterlimit:4;stroke-dasharray:none;stroke-opacity:1" />
          <path
             inkscape:connector-curvature="0"
             id="path4575"
             d="m 380.83608,502.48818 c 0.34666,0.0476 0.70157,0.13394 0.90527,0.43745 0.26739,0.08 0.44552,0.2739 0.7523,0.18192 0.32018,0.0431 0.5786,0.21719 0.81335,0.44626 0.1795,0.0566 0.32802,-0.0197 0.4718,0.15136 0.32632,-0.0138 0.5602,0.23298 0.85273,0.32836 0.21039,-0.0424 0.44598,-0.002 0.56481,0.14184 0.28699,0.0421 0.53439,0.24637 0.84532,0.16173 0.56527,-3.4e-4 1.13054,5e-5 1.69578,0.005 0.23403,-0.21688 -0.16341,-0.15714 -0.27545,-0.15929"
             style="fill:none;fill-rule:evenodd;stroke:#000000;stroke-width:2.3820467;stroke-linecap:butt;stroke-linejoin:miter;stroke-miterlimit:4;stroke-dasharray:none;stroke-opacity:1" />
          <path
             sodipodi:nodetypes="ccccccccc"
             inkscape:connector-curvature="0"
             id="path4577"
             d="m 422.97643,513.18616 c 0.27047,0.0167 0.89987,1.05973 1.20067,0.85501 0.25892,0.39904 0.77141,0.26883 1.15988,0.2259 0.39405,0.17076 0.69802,0.48789 1.10778,0.4229 0.37817,-0.0882 0.40866,0.22477 0.73557,0.13078 0.22083,0.16596 0.65178,0.0988 0.93337,0.0525 0.25051,0.28848 0.45424,0.10456 0.79584,-0.0304 0.34696,-0.0545 0.74064,0.47974 1.08649,0.31879 0.24477,-0.28751 0.72004,-0.15061 1.10091,-0.22611"
             style="fill:none;fill-rule:evenodd;stroke:#000000;stroke-width:2.3820467;stroke-linecap:butt;stroke-linejoin:miter;stroke-miterlimit:4;stroke-dasharray:none;stroke-opacity:1" />
          <path
             sodipodi:nodetypes="ccccccscccc"
             inkscape:connector-curvature="0"
             id="path4567"
             d="m 378.92604,484.00581 c 2.85624,0.61856 4.4091,0.85593 7.15387,1.60067 1.45481,1.25873 1.99532,2.1128 4.0705,2.48366 1.57229,2.05433 2.34038,3.02715 4.04473,4.44928 1.51006,1.48432 3.64577,3.5407 3.38297,5.2194 -1.49842,1.20992 -4.16653,-0.6779 -6.4859,-1.65085 -1.72668,-1.58765 -4.72761,-2.8725 -6.29651,-4.05858 -1.65322,-1.24982 -2.73392,-2.61261 -5.06834,-3.53041 l -4.10706,-0.0535 -4.48022,-2.33898 c 2.79844,-1.14758 5.12921,-1.0523 7.78596,-2.12068 z"
             style="opacity:1;fill:#000000;fill-rule:evenodd;stroke:#000000;stroke-width:0.89753079px;stroke-linecap:butt;stroke-linejoin:miter;stroke-opacity:1" />
          <path
             sodipodi:nodetypes="cssssssssc"
             inkscape:connector-curvature="0"
             id="path4271"
             d="m 387.33833,528.60751 c -0.24015,0.50975 -0.64624,0.97067 -0.72044,1.52925 -0.11278,0.84899 -0.2661,1.83021 0.17678,2.56326 0.50301,0.83257 1.55239,1.17892 2.38649,1.67938 0.79089,0.47454 1.68936,0.75405 2.47487,1.23744 0.75277,0.46324 1.45713,1.0078 2.12132,1.59099 0.54815,0.4813 0.85015,1.26476 1.5026,1.59099 0.66353,0.33177 1.46797,0.25203 2.20971,0.26516 0.9298,0.0165 1.85799,-0.0938 2.78423,-0.17677 1.04835,-0.0939 2.09186,-0.23569 3.13779,-0.35354"
             style="fill:none;fill-rule:evenodd;stroke:#000000;stroke-width:2.3820467;stroke-linecap:butt;stroke-linejoin:miter;stroke-miterlimit:4;stroke-dasharray:none;stroke-opacity:1" />
          <path
             inkscape:connector-curvature="0"
             id="path4273"
             d="m 401.29036,538.00332 1.59099,-0.88388 2.47487,-0.17678"
             style="fill:none;fill-rule:evenodd;stroke:#000000;stroke-width:2.3820467;stroke-linecap:butt;stroke-linejoin:miter;stroke-miterlimit:4;stroke-dasharray:none;stroke-opacity:1" />
          <path
             inkscape:connector-curvature="0"
             id="path4275"
             d="m 389.26955,533.14197 1.23743,0 1.59099,2.65165"
             style="fill:none;fill-rule:evenodd;stroke:#000000;stroke-width:2.3820467;stroke-linecap:butt;stroke-linejoin:miter;stroke-miterlimit:4;stroke-dasharray:none;stroke-opacity:1" />
          <path
             sodipodi:nodetypes="csssssssssc"
             inkscape:connector-curvature="0"
             id="path4277"
             d="m 379.4545,547.28894 c 1.27232,0.22559 2.55395,0.4038 3.81695,0.67677 1.23817,0.2676 2.43981,0.69164 3.68122,0.94378 0.95449,0.19386 1.97874,0.0631 2.89552,0.39201 0.89129,0.31972 1.52839,1.15487 2.40625,1.5098 0.82051,0.33174 1.72019,0.47971 2.60448,0.51609 0.78046,0.0321 1.55602,-0.46494 2.3223,-0.31342 1.10022,0.21755 2.02027,0.98139 3.06878,1.37944 1.07186,0.40691 2.18807,0.6857 3.28125,1.03125 0.71932,0.22737 1.40676,0.60157 2.15625,0.6875 0.91164,0.10452 1.83333,-0.0833 2.75,-0.125"
             style="fill:none;fill-rule:evenodd;stroke:#000000;stroke-width:2.3820467;stroke-linecap:butt;stroke-linejoin:miter;stroke-miterlimit:4;stroke-dasharray:none;stroke-opacity:1" />
          <path
             sodipodi:nodetypes="cssssssssc"
             inkscape:connector-curvature="0"
             id="path4279"
             d="m 382.1875,549.42466 c 0,0 1.37554,1.58588 1.875,2.5 0.54365,0.995 0.77514,2.10158 1.45267,3.01072 0.82663,1.1092 1.81895,2.04061 3.04733,2.67678 1.39828,0.72416 4.5,1.4375 4.5,1.4375 1.19346,0.38124 2.538,0.063 3.75,-0.25444 0,0 1.79865,-0.3197 2.625,-0.6875 0.79712,-0.35479 1.45129,-0.96922 2.1875,-1.4375 0.53665,-0.34135 1.06919,-0.69082 1.625,-1 0.52923,-0.2944 1.625,-0.8125 1.625,-0.8125"
             style="fill:none;fill-rule:evenodd;stroke:#000000;stroke-width:2.3820467;stroke-linecap:butt;stroke-linejoin:miter;stroke-miterlimit:4;stroke-dasharray:none;stroke-opacity:1" />
          <path
             style="fill:none;fill-rule:evenodd;stroke:#000000;stroke-width:2.3820467;stroke-linecap:butt;stroke-linejoin:miter;stroke-miterlimit:4;stroke-dasharray:none;stroke-opacity:1"
             d="m 409.04388,534.87434 c -0.0774,0.55814 0.0108,1.16607 -0.23234,1.67442 -0.3695,0.77264 -0.74384,1.7576 -1.5488,2.05006 -1.21852,0.44272 -2.59243,-0.0497 -3.88864,-0.0745"
             id="path4319"
             inkscape:connector-curvature="0"
             sodipodi:nodetypes="cssc" />
        </g>
      </g>
      <g
         transform="matrix(1.078583,0,0,1.0785495,-29.926652,-54.787565)"
         id="g4880">
        <path
           id="path4877"
           style="fill:#ffffff;fill-rule:evenodd;stroke:#000000;stroke-width:2.3820467;stroke-linecap:butt;stroke-linejoin:miter;stroke-miterlimit:4;stroke-dasharray:none;stroke-opacity:1"
           d="m 426.58478,568.941 c 0,0 -1.49342,1.58506 -3.51156,4.48929 -1.03827,1.68959 -7.41006,2.60552 -5.98061,-2.94008 0.95737,-2.6429 2.68164,-5.77512 4.11532,-8.17617 2.41262,-6.02358 4.77083,-11.21615 6.20266,-12.71482 2.04743,-2.14302 7.11076,-7.67893 9.72837,-7.49698 4.7953,-0.19414 8.57144,0.97946 13.06241,2.77711 -1.1904,-6.7926 -1.87638,-13.66583 -1.2671,-19.99661 -2.31503,-14.53115 0.70825,-17.2002 6.33874,-27.18144 l 0.0474,0.011 c 0.91278,10.59226 1.85385,13.3792 2.6209,16.85309 0.74117,3.35663 2.42696,10.45427 3.51699,14.8822 2.86747,7.00918 4.7084,13.771 6.75001,22.89474 1.51411,3.47892 2.16862,3.21027 4.27733,9.8296 2.16347,10.5374 -1.3034,21.49448 1.09489,32.13963 2.47481,11.02243 7.68368,20.41127 11.9401,29.07963 9.03409,18.39831 16.89964,38.38754 27.21624,56.46944 11.29116,19.79 23.0413,38.97891 24.07185,61.24819 -1.526,10.86013 -8.32559,29.16563 -13.02488,39.28113 0,0 -8.87433,0.82968 -18.6705,0.92968 -11.45076,0.11688 -33.89412,-1.8478 -33.89412,-1.8478 -10.33113,-6.46785 -15.5725,-16.30355 -17.93191,-30.91816 -2.54046,-15.73603 -13.84638,-53.60991 -9.43723,-66.20725 3.2445,-0.98581 6.54193,-1.78222 9.78314,-2.75834 -1.49347,-18.62254 -3.26269,-37.48903 -4.72229,-55.56073 -0.39167,-6.52165 -3.63251,-13.06579 -8.57209,-18.35421 -7.77966,-8.32904 -8.16058,-16.20224 -7.56074,-24.17141 -2.73497,-7.70486 -7.10632,-10.8613 -6.19332,-12.56073 z"
           inkscape:connector-curvature="0"
           sodipodi:nodetypes="ccccscccccsccccssccscscccscc" />
        <path
           style="fill:none;fill-rule:evenodd;stroke:#000000;stroke-width:2.3820467;stroke-linecap:butt;stroke-linejoin:miter;stroke-miterlimit:4;stroke-dasharray:none;stroke-opacity:1"
           d="m 450.28951,544.86361 c 2.77945,1.20508 5.30621,2.48356 9.24858,4.42981"
           id="path4531"
           inkscape:connector-curvature="0"
           sodipodi:nodetypes="cc" />
        <path
           style="fill:none;fill-rule:evenodd;stroke:#000000;stroke-width:2.3820467;stroke-linecap:butt;stroke-linejoin:miter;stroke-miterlimit:4;stroke-dasharray:none;stroke-opacity:1"
           d="m 426.27659,569.24918 c 3.35495,-2.72825 7.22188,-6.6413 7.22188,-6.6413 4.07489,3.29089 6.26147,2.23441 9.36105,2.75696 -0.12136,2.89335 0.53364,5.86382 2.86603,7.84933 -1.92304,4.24539 -1.65756,8.28021 -1.40396,12.71433"
           id="path4522"
           inkscape:connector-curvature="0"
           sodipodi:nodetypes="ccccc" />
        <path
           id="path4529"
           style="fill:none;fill-rule:evenodd;stroke:#000000;stroke-width:2.3820467;stroke-linecap:butt;stroke-linejoin:miter;stroke-miterlimit:4;stroke-dasharray:none;stroke-opacity:1"
           d="m 422.38283,559.66985 c 2.2688,-1.94226 7.82994,-7.75032 11.12048,-8.84221 1.5751,-0.52266 8.16832,0.0254 11.02138,0.64828 2.89579,0.63222 8.34896,3.94254 8.34896,3.94254"
           inkscape:connector-curvature="0"
           sodipodi:nodetypes="cssc" />
        <path
           style="fill:none;fill-rule:evenodd;stroke:#000000;stroke-width:2.3820467;stroke-linecap:butt;stroke-linejoin:miter;stroke-miterlimit:4;stroke-dasharray:none;stroke-opacity:1"
           d="m 421.90135,574.37166 c 2.72743,-0.0164 5.1128,-2.06539 7.60271,-5.35176 1.63258,-0.72295 3.34776,-1.36471 5.64912,-3.27734"
           id="path4537"
           inkscape:connector-curvature="0"
           sodipodi:nodetypes="ccc" />
        <path
           sodipodi:nodetypes="csc"
           inkscape:connector-curvature="0"
           id="path4871"
           d="m 453.63322,679.58808 c 1.90644,23.77213 3.36354,47.14676 3.15364,67.96322 -0.0257,2.5501 0.48204,5.08491 1.05819,7.57114"
           style="fill:none;fill-rule:evenodd;stroke:#000000;stroke-width:2.3820467;stroke-linecap:butt;stroke-linejoin:miter;stroke-miterlimit:4;stroke-dasharray:none;stroke-opacity:1" />
      </g>
    </g>
  </g>
</svg>
